<svg width="18" height="20" viewBox="0 0 18 20" fill="none" xmlns="http://www.w3.org/2000/svg">
<path d="M9.12101 19V11M9.12101 19L2.19281 14.5895C1.73997 14.3012 1.51355 14.1571 1.3902 13.9323C1.26685 13.7075 1.26685 13.4391 1.26685 12.9023V6M9.12101 19L16.0492 14.5895C16.5021 14.3012 16.7285 14.1571 16.8518 13.9323C16.9752 13.7075 16.9752 13.4391 16.9752 12.9023V6M9.12101 11L1.26685 6M9.12101 11L16.9752 6M1.26685 6L8.04697 1.68374C8.5688 1.35154 8.82972 1.18544 9.12101 1.18544C9.41231 1.18544 9.67322 1.35154 10.1951 1.68374L16.9752 6" stroke="#222222" stroke-linejoin="round"/>
</svg>
